<svg width="22" height="24" viewBox="0 0 22 24" fill="none" xmlns="http://www.w3.org/2000/svg">
<path d="M11.0043 6.60928C8.02305 6.60928 5.61836 9.01396 5.61836 11.9952C5.61836 14.9765 8.02305 17.3812 11.0043 17.3812C13.9855 17.3812 16.3902 14.9765 16.3902 11.9952C16.3902 9.01396 13.9855 6.60928 11.0043 6.60928ZM11.0043 15.4968C9.07773 15.4968 7.50273 13.9265 7.50273 11.9952C7.50273 10.064 9.07305 8.49365 11.0043 8.49365C12.9355 8.49365 14.5059 10.064 14.5059 11.9952C14.5059 13.9265 12.9309 15.4968 11.0043 15.4968ZM17.8668 6.38896C17.8668 7.0874 17.3043 7.64522 16.6105 7.64522C15.9121 7.64522 15.3543 7.08271 15.3543 6.38896C15.3543 5.69521 15.9168 5.13271 16.6105 5.13271C17.3043 5.13271 17.8668 5.69521 17.8668 6.38896ZM21.434 7.66397C21.3543 5.98115 20.9699 4.49053 19.7371 3.2624C18.509 2.03428 17.0184 1.6499 15.3355 1.56553C13.6012 1.46709 8.40273 1.46709 6.66836 1.56553C4.99023 1.64521 3.49961 2.02959 2.2668 3.25771C1.03398 4.48584 0.654297 5.97646 0.569922 7.65928C0.471484 9.39365 0.471484 14.5921 0.569922 16.3265C0.649609 18.0093 1.03398 19.4999 2.2668 20.728C3.49961 21.9562 4.98555 22.3405 6.66836 22.4249C8.40273 22.5233 13.6012 22.5233 15.3355 22.4249C17.0184 22.3452 18.509 21.9608 19.7371 20.728C20.9652 19.4999 21.3496 18.0093 21.434 16.3265C21.5324 14.5921 21.5324 9.39834 21.434 7.66397ZM19.1934 18.1874C18.8277 19.1062 18.1199 19.814 17.1965 20.1843C15.8137 20.7327 12.5324 20.6062 11.0043 20.6062C9.47617 20.6062 6.19023 20.728 4.81211 20.1843C3.89336 19.8187 3.18555 19.1108 2.81523 18.1874C2.2668 16.8046 2.39336 13.5233 2.39336 11.9952C2.39336 10.4671 2.27148 7.18115 2.81523 5.80303C3.18086 4.88428 3.88867 4.17646 4.81211 3.80615C6.19492 3.25771 9.47617 3.38428 11.0043 3.38428C12.5324 3.38428 15.8184 3.2624 17.1965 3.80615C18.1152 4.17178 18.823 4.87959 19.1934 5.80303C19.7418 7.18584 19.6152 10.4671 19.6152 11.9952C19.6152 13.5233 19.7418 16.8093 19.1934 18.1874Z" fill="#3A3A3A"/>
</svg>
