<svg width="22" height="24" viewBox="0 0 22 24" fill="none" xmlns="http://www.w3.org/2000/svg">
<path d="M21.5 9.83906C19.4359 9.84417 17.4223 9.20058 15.7438 7.99922V16.3781C15.7433 17.9304 15.2689 19.4455 14.384 20.7208C13.4991 21.9961 12.2459 22.9708 10.792 23.5146C9.33813 24.0584 7.75287 24.1453 6.24825 23.7638C4.74364 23.3822 3.39139 22.5503 2.37237 21.3794C1.35335 20.2084 0.716138 18.7543 0.545954 17.2114C0.37577 15.6685 0.680728 14.1104 1.42004 12.7456C2.15936 11.3807 3.29778 10.2741 4.68306 9.57374C6.06834 8.8734 7.63443 8.61272 9.17188 8.82656V13.0406C8.46859 12.8194 7.71338 12.8261 7.0141 13.0597C6.31482 13.2933 5.70724 13.7418 5.27811 14.3413C4.84898 14.9408 4.62026 15.6606 4.6246 16.3979C4.62894 17.1351 4.86613 17.8521 5.30229 18.4466C5.73845 19.041 6.35128 19.4824 7.05326 19.7077C7.75524 19.933 8.51048 19.9308 9.21111 19.7013C9.91175 19.4718 10.522 19.0268 10.9546 18.4298C11.3872 17.8329 11.6202 17.1145 11.6202 16.3772V0H15.7452C15.7423 0.348347 15.7715 0.696218 15.8324 1.03922C15.9757 1.80498 16.2737 2.53345 16.7082 3.18009C17.1427 3.82672 17.7046 4.37793 18.3594 4.8C19.2909 5.41606 20.3832 5.74438 21.5 5.74406V9.83906Z" fill="#3A3A3A"/>
</svg>
