<svg width="18" height="20" viewBox="0 0 18 20" fill="none" xmlns="http://www.w3.org/2000/svg">
<path d="M9.0041 5.50781C6.44874 5.50781 4.38758 7.51172 4.38758 9.99609C4.38758 12.4805 6.44874 14.4844 9.0041 14.4844C11.5595 14.4844 13.6206 12.4805 13.6206 9.99609C13.6206 7.51172 11.5595 5.50781 9.0041 5.50781ZM9.0041 12.9141C7.35276 12.9141 6.00276 11.6055 6.00276 9.99609C6.00276 8.38672 7.34874 7.07812 9.0041 7.07812C10.6595 7.07812 12.0054 8.38672 12.0054 9.99609C12.0054 11.6055 10.6554 12.9141 9.0041 12.9141ZM14.8862 5.32422C14.8862 5.90625 14.4041 6.37109 13.8095 6.37109C13.2108 6.37109 12.7327 5.90234 12.7327 5.32422C12.7327 4.74609 13.2148 4.27734 13.8095 4.27734C14.4041 4.27734 14.8862 4.74609 14.8862 5.32422ZM17.9438 6.38672C17.8755 4.98438 17.5461 3.74219 16.4894 2.71875C15.4367 1.69531 14.159 1.375 12.7166 1.30469C11.23 1.22266 6.77419 1.22266 5.28758 1.30469C3.84919 1.37109 2.57151 1.69141 1.51482 2.71484C0.45812 3.73828 0.132673 4.98047 0.0603516 6.38281C-0.0240234 7.82812 -0.0240234 12.1602 0.0603516 13.6055C0.128655 15.0078 0.45812 16.25 1.51482 17.2734C2.57151 18.2969 3.84517 18.6172 5.28758 18.6875C6.77419 18.7695 11.23 18.7695 12.7166 18.6875C14.159 18.6211 15.4367 18.3008 16.4894 17.2734C17.542 16.25 17.8715 15.0078 17.9438 13.6055C18.0282 12.1602 18.0282 7.83203 17.9438 6.38672ZM16.0233 15.1562C15.7099 15.9219 15.1032 16.5117 14.3117 16.8203C13.1264 17.2773 10.3139 17.1719 9.0041 17.1719C7.69428 17.1719 4.87776 17.2734 3.69651 16.8203C2.90901 16.5156 2.30232 15.9258 1.98491 15.1562C1.51482 14.0039 1.6233 11.2695 1.6233 9.99609C1.6233 8.72266 1.51883 5.98438 1.98491 4.83594C2.2983 4.07031 2.90499 3.48047 3.69651 3.17187C4.88178 2.71484 7.69428 2.82031 9.0041 2.82031C10.3139 2.82031 13.1304 2.71875 14.3117 3.17187C15.0992 3.47656 15.7059 4.06641 16.0233 4.83594C16.4934 5.98828 16.3849 8.72266 16.3849 9.99609C16.3849 11.2695 16.4934 14.0078 16.0233 15.1562Z" fill="#38AECC"/>
</svg>
