<svg width="18" height="20" viewBox="0 0 18 20" fill="none" xmlns="http://www.w3.org/2000/svg">
<path d="M18 8.19922C16.2307 8.20347 14.5048 7.66715 13.0661 6.66602V13.6484C13.0657 14.942 12.659 16.2046 11.9005 17.2673C11.1421 18.3301 10.0679 19.1424 8.82172 19.5955C7.57554 20.0487 6.21675 20.1211 4.92707 19.8031C3.6374 19.4852 2.47834 18.7919 1.60489 17.8161C0.731444 16.8404 0.185261 15.6286 0.0393889 14.3428C-0.106483 13.0571 0.15491 11.7587 0.788609 10.6213C1.42231 9.48391 2.3981 8.56174 3.58548 7.97812C4.77287 7.3945 6.11523 7.17727 7.43304 7.35547V10.8672C6.83022 10.6828 6.1829 10.6884 5.58352 10.8831C4.98414 11.0777 4.46335 11.4515 4.09552 11.9511C3.7277 12.4507 3.53165 13.0505 3.53537 13.6649C3.53909 14.2793 3.7424 14.8768 4.11625 15.3721C4.4901 15.8675 5.01538 16.2353 5.61708 16.4231C6.21878 16.6109 6.86612 16.609 7.46667 16.4178C8.06721 16.2265 8.59025 15.8557 8.96108 15.3582C9.33192 14.8607 9.53158 14.262 9.53157 13.6477V0H13.0673C13.0648 0.290289 13.0898 0.580182 13.142 0.866016C13.2649 1.50415 13.5203 2.11121 13.8928 2.65007C14.2652 3.18894 14.7468 3.64828 15.308 4C16.1065 4.51338 17.0427 4.78698 18 4.78672V8.19922Z" fill="#38AECC"/>
</svg>
