<?xml version="1.0" standalone="no"?>
<!DOCTYPE svg PUBLIC "-//W3C//DTD SVG 20010904//EN"
 "http://www.w3.org/TR/2001/REC-SVG-20010904/DTD/svg10.dtd">
<svg version="1.0" xmlns="http://www.w3.org/2000/svg"
 width="320.000000pt" height="320.000000pt" viewBox="0 0 320.000000 320.000000"
 preserveAspectRatio="xMidYMid meet">

<g transform="translate(0.000000,320.000000) scale(0.100000,-0.100000)"
fill="#000000" stroke="none">
<path d="M0 1600 l0 -1600 1600 0 1600 0 0 1600 0 1600 -1600 0 -1600 0 0
-1600z m2150 1278 c0 -24 -23 -69 -84 -163 l-83 -130 47 -52 c94 -102 137
-235 127 -388 -4 -68 -2 -85 9 -85 18 0 18 0 -8 -307 l-22 -263 -513 0 -513 0
0 37 c0 28 17 63 73 152 40 64 77 121 80 128 4 7 -5 26 -21 45 -107 122 -149
311 -106 472 9 33 16 70 16 81 -2 19 53 423 64 478 l6 27 464 0 464 0 0 -32z
m-1945 -1538 c3 -5 1 -10 -4 -10 -6 0 -11 -12 -11 -27 l0 -26 26 24 c14 13 20
25 15 27 -23 8 -10 22 19 22 37 0 37 -5 0 -36 l-29 -25 21 -45 c12 -24 28 -44
36 -44 7 0 10 -4 7 -10 -3 -5 -20 -10 -37 -10 -23 0 -29 4 -24 15 6 17 -13 65
-26 65 -4 0 -8 -13 -8 -30 0 -16 5 -30 10 -30 6 0 10 -4 10 -10 0 -5 -16 -10
-35 -10 -19 0 -35 5 -35 10 0 6 5 10 10 10 6 0 10 28 10 65 0 37 -4 65 -10 65
-5 0 -10 5 -10 10 0 6 13 10 29 10 17 0 33 -4 36 -10z m230 0 c3 -5 1 -10 -4
-10 -7 0 -11 -26 -11 -65 0 -37 4 -65 10 -65 6 0 10 -4 10 -10 0 -5 -16 -10
-35 -10 -19 0 -35 5 -35 10 0 6 5 10 10 10 6 0 10 28 10 65 0 37 -4 65 -10 65
-5 0 -10 5 -10 10 0 6 13 10 29 10 17 0 33 -4 36 -10z m158 -42 l32 -52 3 39
c2 22 -1 41 -7 43 -23 8 -10 22 19 22 17 0 30 -4 30 -10 0 -5 -4 -10 -10 -10
-6 0 -10 -32 -10 -75 0 -41 -4 -75 -8 -75 -4 0 -25 27 -46 60 -21 33 -40 60
-42 60 -2 0 -1 -13 1 -30 3 -16 7 -43 10 -60 4 -27 2 -30 -20 -30 -14 0 -25 5
-25 10 0 6 5 10 10 10 6 0 10 28 10 65 0 37 -4 65 -10 65 -5 0 -10 5 -10 10 0
6 9 10 20 10 14 0 31 -17 53 -52z m285 20 c4 -32 -13 -38 -21 -8 -3 14 -14 20
-31 20 -22 0 -26 -4 -26 -30 0 -34 3 -36 24 -14 15 14 16 12 16 -23 -1 -31 -3
-35 -11 -20 -15 26 -29 20 -29 -13 0 -25 4 -30 25 -30 18 0 29 8 37 28 11 27
12 27 16 4 7 -44 -3 -52 -68 -52 -33 0 -60 4 -60 10 0 6 5 10 10 10 6 0 10 28
10 65 0 37 -4 65 -10 65 -5 0 -10 5 -10 10 0 7 24 10 63 8 59 -3 62 -4 65 -30z
m218 18 c3 -8 4 -25 2 -38 -4 -23 -5 -23 -16 5 -19 46 -32 31 -32 -38 0 -37 4
-65 10 -65 6 0 10 -4 10 -10 0 -5 -18 -10 -40 -10 -22 0 -40 5 -40 10 0 6 7
10 15 10 12 0 15 14 15 66 0 57 -2 65 -17 62 -10 -2 -19 -13 -21 -26 -2 -12
-8 -22 -13 -22 -8 0 -7 47 0 68 1 1 28 2 61 2 43 0 62 -4 66 -14z m194 -6 c29
-29 35 -67 16 -106 -18 -40 -35 -49 -72 -40 -30 8 -58 66 -48 99 19 66 64 87
104 47z m195 -8 c3 -8 -1 -22 -9 -30 -11 -11 -12 -20 -4 -38 13 -28 23 -30 32
-9 3 8 1 15 -4 15 -6 0 -10 5 -10 10 0 6 14 10 30 10 36 0 37 -2 5 -36 -27
-29 -24 -48 6 -39 10 4 19 2 19 -4 0 -13 -25 -18 -90 -17 -49 1 -55 4 -58 23
-2 12 2 32 9 45 7 13 12 35 10 50 -4 43 48 60 64 20z m216 -31 l16 -54 15 54
c12 47 18 54 41 57 15 2 27 -1 27 -7 0 -6 -4 -11 -10 -11 -6 0 -10 -28 -10
-65 0 -37 4 -65 10 -65 6 0 10 -4 10 -10 0 -5 -16 -10 -35 -10 -19 0 -35 5
-35 10 0 6 5 10 10 10 6 0 10 19 9 43 -1 46 -2 44 -19 -22 -13 -51 -22 -45
-43 24 l-16 50 0 -47 c-1 -27 4 -48 9 -48 6 0 10 -4 10 -10 0 -5 -14 -10 -32
-10 -25 0 -29 3 -20 12 15 15 16 138 1 138 -5 0 -7 5 -4 11 4 5 16 9 28 7 16
-2 25 -16 38 -57z m289 -23 c12 -38 26 -68 31 -68 5 0 9 -4 9 -10 0 -5 -16
-10 -35 -10 -33 0 -48 14 -23 22 17 6 0 28 -22 28 -22 0 -39 -22 -22 -28 23
-7 11 -22 -18 -22 -16 0 -30 5 -30 10 0 6 4 10 9 10 5 0 21 34 37 75 15 42 30
72 34 68 4 -4 17 -38 30 -75z m227 69 c2 -3 3 -18 1 -34 l-4 -28 -14 28 c-16
33 -60 39 -60 8 0 -13 11 -23 35 -31 44 -14 61 -43 46 -76 -12 -27 -58 -33
-79 -12 -9 9 -12 9 -13 -2 -1 -8 -5 1 -9 20 -5 20 -5 40 1 46 5 6 7 19 3 28
-3 9 -3 28 0 42 6 24 10 26 47 21 23 -3 43 -8 46 -10z m172 7 c27 -6 31 -11
31 -38 l-1 -31 -20 28 c-24 32 -59 37 -59 8 0 -13 11 -23 35 -31 39 -13 59
-41 50 -70 -8 -25 -52 -37 -77 -21 -14 9 -18 8 -19 -1 0 -7 -5 2 -11 21 -6 23
-6 37 1 44 8 8 11 6 11 -6 0 -9 9 -26 20 -37 16 -16 25 -18 40 -10 30 16 24
28 -25 51 -37 17 -45 26 -45 48 0 25 16 51 31 51 3 0 21 -3 38 -6z m222 -74
c13 -40 28 -70 36 -70 7 0 13 -4 13 -10 0 -5 -15 -10 -34 -10 -19 0 -38 5 -41
10 -3 6 -1 10 4 10 6 0 11 7 11 15 0 9 -9 15 -24 15 -13 0 -26 -7 -30 -15 -3
-9 0 -15 10 -15 8 0 12 -4 9 -10 -8 -12 -65 -13 -65 -1 0 5 6 11 13 14 6 2 23
36 36 75 13 39 27 69 31 67 4 -3 18 -36 31 -75z m234 46 c1 -36 -9 -41 -23
-11 -15 33 -50 33 -62 -1 -12 -32 -2 -101 16 -108 7 -3 20 2 29 10 17 17 20
44 5 44 -5 0 -10 5 -10 10 0 6 14 10 30 10 17 0 30 -4 30 -10 0 -5 -5 -10 -11
-10 -7 0 -9 -11 -6 -30 4 -16 2 -32 -3 -35 -6 -3 -10 -1 -10 6 0 10 -3 10 -12
1 -38 -38 -94 7 -92 74 1 61 25 86 78 81 37 -4 41 -7 41 -31z m224 2 c0 -31
-1 -32 -11 -10 -8 15 -20 22 -40 22 -23 0 -28 -4 -28 -24 0 -32 20 -44 27 -17
8 31 21 16 21 -24 0 -36 -11 -47 -22 -20 -10 26 -26 16 -26 -15 0 -27 3 -30
30 -30 23 0 31 5 36 26 9 34 24 17 17 -18 -5 -27 -8 -28 -64 -28 -52 0 -86 13
-58 22 15 5 16 121 1 126 -29 9 4 22 59 22 l59 0 -1 -32z m-2315 -294 c19 -18
19 -20 6 -44 -7 -13 -7 -21 0 -25 14 -9 13 -48 -2 -63 -7 -7 -37 -12 -67 -11
-31 0 -50 3 -43 6 8 3 12 28 12 73 0 45 -4 70 -12 73 -7 3 10 6 39 6 34 1 57
-4 67 -15z m157 7 c-10 -7 -11 -13 -2 -30 7 -11 16 -21 20 -21 15 0 22 32 10
46 -9 11 -6 14 19 14 l31 0 -24 -36 c-27 -40 -34 -109 -12 -117 6 -3 -8 -5
-33 -5 -25 0 -37 2 -27 5 36 10 14 92 -37 135 -21 17 -20 18 24 18 29 0 40 -3
31 -9z m403 -3 c-5 -7 -25 -40 -46 -73 -35 -56 -36 -60 -17 -63 23 -4 49 14
49 34 0 8 5 14 10 14 11 0 13 -20 4 -44 -5 -12 -20 -16 -60 -16 -31 0 -54 4
-54 10 0 6 18 38 40 71 22 33 40 62 40 65 0 14 -35 0 -55 -22 l-25 -27 0 25
c0 35 6 38 67 38 41 0 52 -3 47 -12z m216 -20 l0 -33 -18 23 c-9 12 -27 24
-39 26 -17 4 -22 -1 -25 -25 -5 -33 8 -38 28 -11 12 15 13 12 13 -28 0 -40 -1
-43 -13 -27 -20 26 -33 20 -28 -14 4 -24 9 -29 26 -27 11 2 25 13 31 26 14 31
25 28 25 -8 l0 -30 -67 1 c-38 0 -62 3 -55 6 15 6 17 133 2 133 -5 0 -10 5
-10 10 0 6 28 10 65 10 l65 0 0 -32z m151 23 c-13 -8 -13 -16 0 -58 l15 -48
16 46 c14 42 14 47 -1 57 -13 9 -9 11 22 11 36 1 50 -12 24 -22 -6 -2 -18 -22
-25 -43 -24 -70 -34 -94 -41 -94 -4 0 -18 32 -31 70 -13 39 -30 70 -37 70 -7
0 -13 5 -13 10 0 6 19 10 43 10 29 0 38 -3 28 -9z m288 -23 c-1 -18 -3 -25 -6
-15 -5 19 -49 41 -64 31 -15 -9 -10 -54 6 -54 8 0 15 7 15 16 0 8 4 13 8 10
12 -7 13 -64 1 -71 -5 -4 -9 1 -9 9 0 9 -7 16 -15 16 -10 0 -15 -10 -15 -31 0
-27 3 -30 28 -27 16 2 31 12 37 26 11 25 31 31 21 6 -3 -9 -6 -22 -6 -30 0
-11 -16 -14 -67 -14 -38 0 -63 4 -56 8 19 12 21 124 3 139 -12 10 -2 12 53 13
l67 0 -1 -32z m218 10 c25 -24 30 -66 12 -101 -17 -32 -28 -37 -89 -36 -30 0
-49 3 -42 6 16 6 16 125 0 141 -9 9 0 12 42 12 41 0 59 -5 77 -22z m233 -10
c-1 -30 -2 -31 -12 -13 -6 11 -11 21 -12 22 -1 1 -13 4 -29 8 -25 7 -27 5 -27
-24 0 -21 5 -31 15 -31 8 0 15 7 15 16 0 8 4 13 8 10 4 -3 6 -22 3 -43 -3 -21
-6 -30 -9 -20 -6 30 -32 20 -32 -13 0 -19 5 -30 14 -30 25 0 46 12 46 25 0 8
5 17 10 20 6 4 10 -7 10 -24 l0 -31 -67 1 c-38 0 -62 3 -55 6 15 6 17 133 2
133 -5 0 -10 5 -10 10 0 6 28 10 65 10 l65 0 0 -32z m152 19 c-18 -22 -19
-126 -2 -137 11 -7 4 -10 -25 -9 -22 0 -34 3 -27 6 16 6 16 125 0 141 -9 9 -4
12 26 12 31 0 36 -3 28 -13z"/>
<path d="M1450 2810 c-88 -48 -153 -130 -200 -256 -9 -23 -3 -19 45 24 122
112 301 157 467 118 51 -12 59 -11 71 3 15 19 59 86 76 119 l12 22 -208 0
-208 0 -55 -30z"/>
<path d="M1526 2649 c-79 -19 -165 -70 -226 -136 -93 -99 -130 -191 -130 -322
0 -118 36 -224 100 -298 l28 -32 37 56 c20 30 116 179 212 331 97 153 191 301
211 330 19 29 32 55 29 58 -22 22 -187 30 -261 13z"/>
<path d="M1776 2257 c-98 -155 -209 -331 -247 -390 -38 -60 -67 -113 -64 -117
11 -18 123 -32 213 -28 81 5 102 10 165 41 169 84 267 240 267 427 0 127 -47
246 -127 322 l-29 28 -178 -283z"/>
<path d="M2076 1903 c-3 -11 -34 -47 -69 -82 -70 -70 -165 -123 -254 -141 -72
-15 -222 -8 -280 13 l-43 16 -45 -70 c-25 -38 -45 -72 -45 -75 0 -3 109 -4
243 -2 226 3 245 4 283 25 51 27 115 91 149 149 29 50 78 174 71 181 -2 2 -7
-4 -10 -14z"/>
<path d="M1220 1304 c-21 -55 19 -137 49 -100 17 21 23 69 12 99 -14 36 -48
36 -61 1z"/>
<path d="M1444 1316 c-8 -22 3 -33 18 -18 9 9 9 15 0 24 -9 9 -13 7 -18 -6z"/>
<path d="M1426 1233 c-9 -21 14 -45 32 -34 12 7 12 12 1 30 -17 25 -25 27 -33
4z"/>
<path d="M1940 1260 c0 -11 5 -20 10 -20 6 0 10 9 10 20 0 11 -4 20 -10 20 -5
0 -10 -9 -10 -20z"/>
<path d="M2130 1245 c0 -8 9 -24 20 -35 16 -16 25 -18 40 -10 29 16 25 29 -15
46 -43 18 -45 17 -45 -1z"/>
<path d="M2567 1276 c-10 -26 -9 -33 8 -33 17 0 17 3 6 31 -7 18 -8 18 -14 2z"/>
<path d="M690 999 c0 -26 3 -30 22 -27 26 3 37 36 16 49 -25 17 -38 9 -38 -22z"/>
<path d="M690 924 c0 -31 3 -35 23 -32 16 2 22 10 22 27 0 15 -8 27 -22 32
-21 8 -23 5 -23 -27z"/>
<path d="M2110 959 c0 -61 2 -69 19 -69 31 0 51 28 51 69 0 41 -11 55 -47 64
-22 5 -23 3 -23 -64z"/>
</g>
</svg>
